<?xml version="1.0" standalone="no"?>
<!DOCTYPE svg PUBLIC "-//W3C//DTD SVG 20010904//EN"
 "http://www.w3.org/TR/2001/REC-SVG-20010904/DTD/svg10.dtd">
<svg version="1.0" xmlns="http://www.w3.org/2000/svg"
 width="628.000000pt" height="628.000000pt" viewBox="0 0 628.000000 628.000000"
 preserveAspectRatio="xMidYMid meet">
<metadata>
Created by potrace 1.14, written by Peter Selinger 2001-2017
</metadata>
<g transform="translate(0.000000,628.000000) scale(0.100000,-0.100000)"
fill="#000000" stroke="none">
<path d="M2967 6204 c-1 -1 -29 -5 -62 -8 -438 -47 -849 -175 -1197 -371 -179
-102 -449 -292 -572 -404 -106 -97 -336 -337 -344 -361 -2 -4 71 -7 162 -7
l165 2 88 85 c79 76 138 128 260 226 61 49 251 176 338 226 158 90 393 192
555 242 98 29 276 72 335 81 23 3 50 7 62 9 131 26 417 36 574 21 63 -5 227
-31 333 -50 150 -29 390 -106 549 -176 149 -67 348 -173 355 -191 2 -4 8 -8
12 -8 18 0 177 -108 280 -190 118 -93 315 -287 408 -399 34 -41 61 -76 59 -77
-1 -2 -35 8 -74 21 -89 30 -189 47 -273 46 l-65 0 -99 95 c-55 52 -145 129
-200 170 -56 42 -108 81 -116 87 -25 20 -220 132 -297 170 -261 131 -556 218
-833 245 -95 9 -362 9 -460 0 -203 -19 -455 -82 -670 -168 -328 -131 -681
-382 -882 -627 l-26 -32 -254 -2 c-265 -1 -318 -8 -403 -50 -69 -35 -175 -145
-175 -181 0 -9 8 -18 18 -21 9 -3 34 -16 55 -28 l37 -23 43 43 c23 24 67 55
97 70 l55 26 1705 0 c1789 0 1777 0 1811 -42 24 -28 -5 -36 -68 -16 -56 17
-140 18 -1724 17 -1624 0 -1665 0 -1718 -20 -75 -26 -143 -91 -183 -172 l-33
-67 -2 -980 c-1 -539 -2 -985 -2 -991 -1 -7 -56 -10 -167 -10 -91 1 -170 -1
-175 -5 -16 -9 -2 -206 18 -261 38 -106 147 -202 258 -226 34 -8 394 -11 1137
-12 l1087 0 38 32 c21 18 108 103 194 190 94 95 164 158 175 158 11 0 84 -64
170 -148 83 -81 172 -166 197 -189 l47 -43 1045 0 1045 0 -13 -28 c-22 -50
-90 -166 -154 -265 -162 -246 -426 -512 -713 -717 -122 -88 -272 -182 -328
-208 -20 -9 -48 -24 -62 -33 -44 -28 -282 -126 -395 -162 -164 -53 -344 -96
-472 -113 -26 -3 -57 -8 -68 -10 -85 -16 -358 -22 -520 -11 -231 16 -587 101
-805 192 -512 214 -944 547 -1261 969 -50 66 -93 125 -97 133 -6 11 -38 13
-150 11 l-142 -3 47 -80 c62 -107 127 -196 247 -340 299 -358 690 -661 1098
-853 179 -84 477 -185 642 -218 39 -7 82 -16 96 -19 63 -12 78 -15 125 -21 28
-3 53 -8 56 -10 14 -8 224 -19 369 -19 139 0 300 9 340 20 8 2 38 6 65 10 293
36 737 187 1036 351 84 46 337 212 394 258 17 14 66 54 110 89 183 147 396
371 538 567 42 58 81 110 87 117 5 7 10 14 10 17 0 3 14 27 30 53 l31 49 0
175 c1 200 9 231 61 248 18 6 47 10 63 8 l30 -2 1 440 c1 299 -2 442 -9 447
-6 3 -20 3 -32 -2 -30 -11 -81 15 -93 48 -5 15 -9 190 -8 400 l1 372 -24 0
c-18 0 -22 4 -16 18 18 41 36 145 42 239 l6 102 63 -87 63 -87 0 -434 1 -434
45 -42 c27 -25 46 -51 46 -66 1 -13 3 -98 5 -189 1 -91 3 -175 3 -187 1 -19 7
-23 30 -23 24 0 31 6 40 33 52 167 81 575 58 812 -24 241 -112 604 -203 837
-204 521 -589 1003 -1094 1369 -265 192 -703 400 -996 473 -174 43 -358 78
-486 92 -50 5 -426 13 -431 8z m395 -873 c40 -6 93 -13 118 -17 77 -11 282
-71 391 -114 117 -46 277 -129 383 -197 82 -52 252 -179 261 -194 7 -10 -33
-48 -50 -49 -6 0 -27 11 -47 25 -20 13 -60 34 -89 47 l-54 22 -1219 3 c-670 1
-1220 4 -1223 6 -12 13 317 223 438 279 242 114 450 174 680 196 105 10 314 7
411 -7z m1722 -576 c233 -47 436 -208 519 -412 75 -184 79 -326 15 -522 -41
-127 -128 -242 -242 -320 -47 -33 -62 -38 -77 -30 -20 10 -39 5 -39 -12 0 -5
8 -9 18 -9 14 0 15 2 2 10 -9 6 -10 10 -3 10 20 0 25 -20 7 -27 -10 -3 -22 0
-28 8 -12 16 -18 16 -56 5 -14 -4 -52 -8 -83 -10 -31 -1 -60 -5 -63 -9 -3 -3
-12 -3 -20 0 -8 3 -14 0 -14 -7 0 -6 5 -8 12 -4 7 4 8 3 4 -5 -10 -15 -26 -5
-27 17 0 10 -3 12 -6 5 -3 -10 -10 -10 -26 -1 -16 8 -22 8 -25 -1 -4 -12 -23
-16 -21 -3 3 18 -3 21 -26 12 -17 -6 -25 -6 -25 1 0 6 -13 8 -29 6 -17 -3 -31
-1 -33 3 -2 5 -12 10 -23 12 -11 1 -22 6 -25 10 -3 3 -14 8 -25 10 -11 1 -22
6 -25 10 -3 3 -14 8 -25 10 -11 1 -26 11 -33 21 -10 13 -17 15 -26 8 -15 -13
-27 -4 -20 13 3 7 -7 18 -21 24 -14 6 -25 16 -25 22 0 5 -9 10 -20 10 -11 0
-20 -4 -20 -10 0 -5 -5 -10 -10 -10 -6 0 -5 8 2 21 11 17 10 22 -3 32 -9 7
-19 22 -23 35 -8 25 -46 51 -46 31 0 -7 -3 -9 -6 -6 -4 4 -1 13 6 22 10 12 10
18 -1 31 -7 9 -14 23 -15 32 -2 8 -6 18 -11 21 -4 3 -10 17 -12 31 -1 14 -7
32 -11 40 -4 8 -11 36 -15 63 -5 33 -12 47 -24 48 -14 0 -14 1 1 7 12 5 15 11
9 21 -5 8 -7 20 -4 28 3 7 2 21 -2 31 -6 15 -9 14 -26 -7 l-20 -25 23 -18 c13
-10 18 -18 12 -18 -13 0 -38 27 -39 44 -1 6 9 21 22 33 13 12 23 18 23 13 0
-6 4 -10 9 -10 6 0 6 12 1 30 -5 17 -5 30 -1 30 5 0 7 10 7 23 -1 12 2 28 7
35 12 16 -5 16 -21 0 -8 -8 -8 -15 -1 -24 6 -7 6 -14 1 -18 -6 -3 -15 0 -21 8
-9 10 -4 21 21 46 18 18 26 30 17 27 -9 -3 -21 -1 -27 5 -6 6 -12 6 -16 -1 -4
-6 -2 -11 5 -11 7 0 4 -7 -7 -15 -10 -8 -15 -15 -10 -15 5 0 2 -7 -5 -17 -11
-13 -11 -17 -1 -20 6 -3 12 -9 12 -14 0 -6 -4 -8 -9 -5 -21 13 -22 -133 -2
-246 0 -4 13 -14 29 -22 15 -8 23 -15 19 -16 -5 0 -17 5 -28 10 -24 13 -25 2
-1 -17 9 -8 11 -12 5 -8 -9 4 -13 -2 -13 -20 0 -17 4 -24 12 -19 8 5 9 0 5
-15 -4 -17 -2 -21 9 -17 8 3 13 2 9 -3 -3 -5 1 -12 7 -15 7 -3 2 -3 -10 0 -21
5 -23 4 -13 -15 7 -12 16 -21 22 -21 6 0 7 5 3 12 -4 7 -3 8 4 4 8 -5 9 -13 2
-25 -5 -10 -6 -22 -2 -26 4 -5 1 -5 -6 -1 -7 4 -10 11 -7 16 3 5 -1 12 -9 17
-16 9 -56 102 -77 178 -25 90 -16 291 17 385 53 153 134 255 275 349 155 104
351 148 513 116z m-2579 -131 c12 -12 13 -19 4 -30 -16 -20 -36 -17 -49 5 -8
16 -6 22 7 30 10 6 19 11 20 11 1 0 9 -7 18 -16z m1623 -192 c2 -7 7 -10 12
-7 4 3 13 -1 19 -9 9 -11 6 -31 -13 -87 -13 -41 -29 -103 -34 -139 -15 -96 -6
-262 18 -347 24 -88 24 -85 3 -82 -10 1 -28 1 -41 0 l-23 -1 1 -362 c1 -200 2
-367 1 -371 -1 -5 -15 3 -31 17 -29 24 -86 46 -121 46 -13 0 -17 15 -22 78 -6
90 -29 145 -79 187 -55 47 -94 57 -224 63 l-122 5 -5 48 c-22 186 -221 302
-393 228 -83 -35 -157 -140 -166 -235 l-4 -39 -144 -2 -145 -3 54 27 c93 45
179 145 211 247 40 125 -8 325 -102 427 -154 167 -399 186 -566 43 -60 -51
-97 -110 -127 -199 -71 -211 8 -419 197 -513 l63 -32 -156 0 -156 0 -6 49
c-12 98 -79 190 -167 230 -53 24 -146 27 -203 7 -98 -36 -171 -134 -180 -246
l-2 -35 -135 -6 c-146 -6 -192 -18 -244 -67 -47 -44 -66 -97 -66 -184 l0 -78
-30 0 c-74 0 -129 -21 -177 -68 -26 -26 -53 -56 -59 -67 -8 -15 -11 158 -10
671 l1 691 29 42 c54 77 42 75 486 81 795 10 2854 4 2858 -8z m-1802 -247 c8
-20 -12 -43 -53 -60 -23 -10 -39 -26 -48 -50 -11 -24 -22 -35 -36 -35 -18 0
-20 4 -15 26 10 38 34 67 86 103 50 35 58 37 66 16z m2015 -54 c-7 -5 -12 -11
-12 -15 3 -20 0 -26 -10 -20 -8 4 -7 9 2 15 8 5 10 9 5 9 -5 0 -3 7 4 15 7 9
15 13 19 10 3 -3 0 -10 -8 -14z m3 -161 c-6 -5 -24 21 -24 34 0 6 6 1 14 -10
8 -10 12 -21 10 -24z m30 -36 c9 -23 7 -31 -4 -14 -5 8 -12 11 -17 7 -4 -5 3
-17 17 -29 l25 -20 -32 18 c-27 15 -30 20 -20 36 14 22 23 23 31 2z m-6 -100
c0 -17 -3 -22 -8 -13 -5 6 -6 18 -3 26 8 19 11 16 11 -13z m37 -13 c-6 -5 -25
10 -25 20 0 5 6 4 14 -3 8 -7 12 -15 11 -17z m-2 -17 c3 -3 3 -13 0 -21 -5
-12 -7 -12 -14 -1 -15 23 -4 40 14 22z m22 -25 c-4 -6 1 -16 10 -23 15 -11 15
-13 2 -25 -12 -9 -17 -9 -23 0 -4 7 -3 9 4 5 6 -3 13 -2 17 4 6 10 -7 14 -33
11 -8 -1 -7 5 5 18 19 22 28 28 18 10z m5 -81 c0 -6 -7 -5 -15 2 -14 12 -15 9
-10 -21 3 -18 3 -31 0 -28 -8 9 -15 51 -9 60 6 11 34 0 34 -13z m-1137 -21
c46 -19 97 -66 97 -90 0 -6 -15 3 -32 20 -53 50 -96 67 -168 67 -74 0 -134
-25 -169 -70 -24 -30 -36 -27 -26 6 9 28 75 71 133 85 55 15 99 10 165 -18z
m-1416 -10 c43 -27 81 -73 70 -84 -4 -3 -18 8 -32 25 -33 39 -97 65 -165 65
-69 0 -119 -21 -163 -68 -23 -24 -37 -33 -42 -25 -10 16 73 93 116 107 19 7
66 11 104 10 57 -2 78 -8 112 -30z m2603 29 c0 -2 -7 -7 -16 -10 -8 -3 -12 -2
-9 4 6 10 25 14 25 6z m-29 -27 c11 -5 16 -15 13 -21 -5 -7 -1 -9 9 -5 10 3
17 2 17 -4 0 -6 -10 -9 -22 -7 -11 2 -23 -3 -26 -11 -3 -9 0 -11 8 -6 7 4 25
-6 46 -26 19 -18 34 -28 34 -21 0 7 5 12 11 12 8 0 8 -4 0 -14 -9 -10 -8 -16
4 -26 13 -11 19 -11 31 2 11 11 12 18 5 22 -6 4 -11 2 -11 -3 0 -6 -5 -11 -11
-11 -8 0 -8 5 1 15 9 11 16 12 26 4 17 -14 8 -37 -19 -45 -20 -6 -20 -7 3 -19
15 -8 19 -15 11 -19 -6 -4 -11 -4 -11 1 0 4 -20 21 -45 36 -25 16 -45 31 -45
34 0 3 11 -2 25 -11 41 -27 41 -18 -1 24 -39 40 -73 57 -39 20 10 -11 14 -20
9 -20 -5 0 -20 16 -33 35 -18 27 -21 38 -12 49 9 11 9 15 -1 19 -7 3 -9 6 -5
6 5 1 17 -4 28 -10z m39 1 c0 -5 -2 -10 -4 -10 -3 0 -8 5 -11 10 -3 6 -1 10 4
10 6 0 11 -4 11 -10z m24 -45 c-4 -8 -11 -15 -16 -15 -6 0 -5 6 2 15 7 8 14
15 16 15 2 0 1 -7 -2 -15z m-270 -47 c-3 -4 0 -8 5 -8 6 0 11 -4 11 -8 0 -5
-6 -9 -13 -9 -7 0 -13 13 -14 30 0 19 2 25 7 16 5 -7 6 -17 4 -21z m26 -53 c0
-8 -4 -15 -10 -15 -5 0 -7 7 -4 15 4 8 8 15 10 15 2 0 4 -7 4 -15z m34 -10 c3
-9 -3 -19 -17 -25 -19 -10 -20 -9 -6 2 9 7 14 19 12 26 -6 17 4 15 11 -3z
m339 -4 c24 -9 26 -13 16 -35 -10 -21 -40 -31 -39 -13 0 4 0 13 0 20 0 8 4 7
10 -3 9 -13 11 -13 19 0 8 11 3 17 -17 26 -15 6 -34 9 -42 7 -13 -4 -13 -3 0
5 8 6 17 9 21 7 3 -3 18 -9 32 -14z m-391 -19 c-7 -2 -9 -9 -5 -15 3 -7 2 -8
-2 -4 -16 14 -14 36 3 29 10 -4 12 -7 4 -10z m453 -12 c-5 -15 -3 -18 9 -14 9
3 16 2 16 -4 0 -16 -31 -7 -42 13 -8 13 -7 16 1 11 6 -4 11 -2 11 3 0 6 3 11
6 11 3 0 3 -9 -1 -20z m-371 2 c3 -5 -1 -9 -9 -9 -8 0 -15 4 -15 9 0 4 4 8 9
8 6 0 12 -4 15 -8z m1276 -12 c-13 -9 -13 -11 0 -20 9 -6 10 -10 3 -10 -6 0
-15 5 -18 10 -8 13 3 30 18 30 7 0 6 -4 -3 -10z m-1308 -14 c-2 -5 2 -13 10
-18 10 -8 10 -9 -2 -5 -8 2 -14 10 -12 16 1 6 -7 11 -17 11 -14 0 -18 -5 -14
-19 6 -23 -8 -33 -27 -19 -12 8 -11 9 3 4 13 -4 18 -1 16 12 -3 30 0 33 24 30
12 -2 20 -7 19 -12z m382 -18 c-9 -14 -23 2 -17 18 4 12 8 13 14 3 4 -7 5 -17
3 -21z m959 19 c3 -8 2 -20 -3 -26 -5 -9 -7 -4 -7 13 0 29 2 32 10 13z m-1277
-9 c4 -6 3 -8 -4 -4 -5 3 -12 0 -15 -6 -2 -7 -8 -9 -13 -5 -5 4 -2 12 6 17 19
12 17 12 26 -2z m418 -4 c3 -8 2 -13 -3 -9 -5 3 -11 0 -13 -7 -3 -7 -7 -5 -11
6 -4 10 -3 15 3 11 6 -3 10 -1 10 4 0 16 7 13 14 -5z m40 -13 c-2 -3 -12 3
-22 13 -16 17 -16 18 5 5 12 -7 20 -15 17 -18z m415 -2 c-7 -4 -19 -5 -27 -1
-11 4 -13 2 -7 -9 8 -12 6 -12 -8 -1 -9 8 -20 11 -25 9 -4 -3 -14 -2 -22 4
-11 6 -5 8 17 5 20 -2 37 2 44 10 9 11 15 12 26 3 11 -9 11 -14 2 -20z m-373
-4 c-3 -9 -10 -13 -16 -10 -5 3 -10 2 -10 -4 0 -17 22 -24 30 -10 7 10 11 10
24 0 9 -8 16 -19 16 -25 0 -6 -6 -3 -14 6 -10 13 -15 15 -24 6 -9 -9 -16 -8
-28 4 -16 16 -11 43 7 33 5 -4 9 2 9 11 0 10 3 15 6 11 4 -3 4 -13 0 -22z m59
15 c-3 -5 -12 -10 -18 -10 -7 0 -6 4 3 10 19 12 23 12 15 0z m660 0 c3 -5 1
-10 -4 -10 -6 0 -11 5 -11 10 0 6 2 10 4 10 3 0 8 -4 11 -10z m-861 -16 c3 -8
2 -12 -4 -9 -6 3 -10 10 -10 16 0 14 7 11 14 -7z m26 -4 c6 -11 8 -20 6 -20
-3 0 -10 9 -16 20 -6 11 -8 20 -6 20 3 0 10 -9 16 -20z m378 -5 c-3 -3 -9 2
-12 12 -6 14 -5 15 5 6 7 -7 10 -15 7 -18z m-853 -14 c-17 -19 -16 -21 11 -45
16 -14 32 -26 37 -26 4 0 7 -7 7 -16 0 -13 3 -14 14 -5 11 9 16 9 22 0 5 -8 3
-9 -6 -4 -33 20 5 -17 45 -45 27 -19 46 -26 50 -20 4 6 16 8 27 4 13 -4 18 -2
14 4 -7 12 32 37 42 28 3 -3 0 -6 -7 -6 -7 0 -9 -4 -6 -10 3 -6 -1 -7 -10 -4
-10 4 -15 2 -13 -7 2 -9 -5 -13 -19 -12 -16 2 -21 -1 -16 -13 3 -8 8 -12 11
-9 3 3 14 -2 24 -12 10 -9 18 -12 18 -8 0 4 8 1 18 -8 9 -8 26 -17 37 -19 11
-1 22 -5 25 -8 18 -18 48 -28 58 -18 6 6 12 6 17 -3 6 -8 4 -10 -6 -4 -8 5
-11 5 -7 1 3 -4 10 -8 15 -8 4 0 14 -4 21 -10 17 -15 15 2 -4 23 -12 14 -13
18 -2 25 7 4 10 4 6 -1 -4 -4 -1 -14 7 -22 12 -12 18 -11 41 4 26 17 26 17 6
33 -15 13 -17 19 -8 31 11 15 69 22 60 7 -3 -5 -10 -6 -15 -3 -5 4 -9 2 -9 -4
0 -18 21 -23 33 -7 11 13 15 13 37 -6 16 -14 19 -19 8 -15 -10 4 -18 2 -18 -3
0 -17 19 -20 34 -4 9 8 16 11 16 5 0 -6 -10 -15 -21 -22 -17 -9 -23 -8 -30 2
-5 8 -9 9 -9 3 0 -6 -11 -16 -25 -22 -15 -7 -25 -8 -25 -2 0 6 6 10 14 10 18
0 47 40 39 53 -3 5 -11 0 -17 -11 -9 -17 -14 -19 -28 -8 -10 7 -18 19 -18 27
0 10 -2 11 -12 0 -11 -10 -9 -16 9 -31 19 -15 20 -19 7 -24 -11 -4 -12 -10 -5
-24 14 -26 100 -31 97 -6 -2 23 20 29 28 8 5 -14 4 -15 -9 -4 -17 14 -21 0 -4
-17 7 -7 -7 -10 -50 -11 -51 0 -61 3 -66 19 -5 15 -10 17 -26 8 -11 -5 -17
-14 -14 -20 4 -5 -89 -9 -244 -9 l-250 0 0 158 c0 108 3 152 10 142 8 -13 12
-12 27 6 9 12 19 20 21 18 2 -2 -4 -13 -14 -23z m126 12 c13 -17 13 -17 -6 -3
-11 8 -22 16 -24 17 -2 2 0 3 6 3 6 0 17 -8 24 -17z m563 -9 c-4 -16 -3 -25 3
-21 5 3 15 2 22 -3 9 -5 3 -7 -17 -7 -19 1 -28 6 -26 14 11 37 14 43 19 43 3
0 2 -12 -1 -26z m144 -2 c2 -12 -1 -22 -6 -22 -6 0 -8 9 -5 20 4 16 2 19 -11
14 -9 -3 -14 -10 -11 -14 3 -4 -2 -13 -10 -20 -10 -9 -15 -9 -15 -1 0 6 5 11
11 11 5 0 7 5 3 12 -5 8 -13 5 -25 -10 -9 -12 -21 -22 -25 -22 -4 0 4 13 19
28 33 34 70 36 75 4z m458 2 c1 -9 0 -13 -4 -10 -3 4 -7 14 -8 22 -1 9 0 13 4
10 3 -4 7 -14 8 -22z m91 7 c0 -11 -5 -18 -9 -15 -4 3 -5 11 -1 19 7 21 12 19
10 -4z m-1317 -26 c0 -5 -5 -3 -10 5 -5 8 -10 20 -10 25 0 6 5 3 10 -5 5 -8
10 -19 10 -25z m46 7 c-4 -3 -14 2 -24 12 -16 18 -16 18 6 6 13 -6 21 -14 18
-18z m433 6 c12 -20 12 -21 0 -11 -14 11 -19 13 -41 13 -9 0 -8 4 2 10 21 14
23 13 39 -12z m108 -10 c-3 -7 -5 -2 -5 12 0 14 2 19 5 13 2 -7 2 -19 0 -25z
m74 18 c5 3 9 0 9 -6 0 -15 -23 -7 -26 8 -1 7 0 8 3 2 2 -5 9 -8 14 -4z m159
-4 c0 -5 -7 -9 -15 -9 -8 0 -12 4 -9 9 3 4 9 8 15 8 5 0 9 -4 9 -8z m470 -2
c0 -5 -4 -10 -10 -10 -5 0 -10 5 -10 10 0 6 5 10 10 10 6 0 10 -4 10 -10z
m-1333 -15 c0 -8 -4 -12 -9 -9 -5 3 -6 10 -3 15 9 13 12 11 12 -6z m1262 -14
c6 -11 6 -22 -1 -32 -8 -12 -9 -11 -5 2 3 9 -2 27 -10 40 -9 12 -11 19 -5 15
7 -4 16 -15 21 -25z m-1194 9 c3 -5 1 -10 -4 -10 -6 0 -11 5 -11 10 0 6 2 10
4 10 3 0 8 -4 11 -10z m45 0 c0 -5 -8 -10 -17 -10 -15 0 -16 2 -3 10 19 12 20
12 20 0z m1120 -10 c6 -11 9 -20 8 -20 -2 0 -11 9 -21 20 -9 11 -13 20 -7 20
5 0 14 -9 20 -20z m78 2 c2 -7 -1 -12 -8 -12 -6 0 -8 5 -4 12 5 8 2 9 -10 5
-11 -4 -15 -3 -11 4 8 12 27 7 33 -9z m-1145 -34 c-2 -5 -12 -7 -21 -7 -15 1
-15 2 -1 6 11 3 15 12 13 26 -4 21 -4 21 5 2 4 -11 7 -23 4 -27z m1197 7 c0
-5 -5 -3 -10 5 -5 8 -10 20 -10 25 0 6 5 3 10 -5 5 -8 10 -19 10 -25z m-1296
0 c11 0 20 -8 22 -18 1 -9 -2 -15 -7 -11 -5 3 -7 10 -3 16 4 6 -3 8 -17 6 -17
-2 -24 2 -26 17 -2 15 -1 16 5 5 4 -8 16 -15 26 -15z m66 15 c0 -5 -5 -10 -11
-10 -5 0 -7 5 -4 10 3 6 8 10 11 10 2 0 4 -4 4 -10z m1073 -7 c-5 -12 -3 -14
7 -8 9 5 11 4 6 -4 -4 -6 -12 -9 -17 -6 -12 8 -12 35 1 35 5 0 6 -7 3 -17z
m-1023 -28 c-7 -8 -16 -15 -21 -15 -5 0 -1 8 9 18 20 22 31 19 12 -3z m990 -1
c0 -8 -4 -14 -10 -14 -5 0 -7 7 -4 15 5 11 1 14 -12 9 -15 -5 -16 -4 -4 4 17
13 30 6 30 -14z m126 14 c5 -7 3 -8 -6 -3 -10 6 -12 4 -7 -8 3 -10 2 -17 -3
-17 -11 0 -13 23 -3 33 9 9 11 9 19 -5z m-1086 -13 c0 -8 -4 -15 -10 -15 -5 0
-7 7 -4 15 4 8 8 15 10 15 2 0 4 -7 4 -15z m1030 -10 c0 -8 -2 -15 -4 -15 -2
0 -6 7 -10 15 -3 8 -1 15 4 15 6 0 10 -7 10 -15z m70 -5 c-6 -11 -15 -20 -20
-20 -6 0 -2 9 7 20 10 11 19 20 21 20 1 0 -2 -9 -8 -20z m48 -205 c-6 -6 -53
-7 -263 -5 -121 1 -211 5 -200 8 24 8 31 32 10 32 -18 0 -20 16 -3 26 6 4 8 3
5 -3 -4 -6 0 -14 9 -17 8 -3 13 -10 9 -15 -3 -5 -1 -12 5 -16 5 -3 10 2 11 12
0 10 3 13 6 6 6 -16 14 -16 50 -1 15 6 34 12 42 14 8 1 17 7 20 12 3 5 14 10
24 10 43 4 48 6 43 18 -3 9 1 11 11 7 13 -5 15 -2 10 12 -6 15 -5 16 8 5 11
-9 18 -10 28 -1 8 6 17 8 20 4 7 -6 11 12 8 31 -1 5 5 6 12 3 15 -6 78 32 112
67 l20 21 3 -114 c1 -63 1 -115 0 -116z m-1110 203 c-2 -6 -15 -13 -29 -15
-18 -2 -20 -1 -9 6 8 5 18 7 22 5 4 -3 8 0 8 5 0 6 3 11 6 11 3 0 4 -5 2 -12z
m847 -28 c-18 -20 -18 -20 5 -20 13 0 20 3 17 7 -10 9 13 33 32 32 10 0 8 -3
-7 -10 -13 -5 -20 -13 -17 -19 8 -13 -20 -24 -41 -16 -15 6 -15 8 1 26 10 11
16 22 13 25 -3 3 -11 -1 -18 -10 -7 -8 -19 -15 -27 -15 -8 0 -11 -5 -8 -11 4
-6 -2 -13 -14 -16 -11 -3 -18 -9 -15 -14 3 -5 -3 -6 -13 -2 -15 6 -13 8 10 18
15 6 24 14 21 18 -4 3 5 11 19 16 14 5 28 15 32 21 5 8 10 9 18 1 7 -7 5 -16
-8 -31z m108 19 c-8 -8 -13 -7 -18 2 -5 8 -4 10 3 5 7 -4 12 -2 12 5 0 7 3 9
7 6 4 -4 2 -12 -4 -18z m-1089 -15 c6 -15 4 -15 -11 -3 -10 7 -20 15 -22 16
-2 2 3 3 11 3 9 0 19 -7 22 -16z m73 1 c0 -8 -4 -12 -9 -9 -4 3 -8 9 -8 15 0
5 4 9 8 9 5 0 9 -7 9 -15z m83 -2 c-1 -13 -30 -48 -30 -36 0 7 5 15 10 18 6 4
8 11 5 16 -4 5 -1 9 4 9 6 0 11 -3 11 -7z m968 -14 c3 -11 2 -11 -7 1 -9 13
-12 12 -26 -5 -16 -19 -16 -19 -5 3 12 25 31 25 38 1z m-59 -23 c0 -7 -2 -6
-6 2 -2 6 -8 10 -12 8 -4 -3 -8 1 -8 9 0 11 4 12 14 4 7 -6 13 -17 12 -23z
m-1029 14 c0 -5 -4 -10 -10 -10 -5 0 -10 5 -10 10 0 6 5 10 10 10 6 0 10 -4
10 -10z m172 -10 c-2 -8 -8 -17 -13 -19 -6 -1 -2 -12 7 -22 25 -28 5 -42 -25
-18 -13 10 -20 19 -15 19 4 0 16 -7 26 -17 10 -9 18 -11 18 -6 0 6 -7 16 -15
23 -14 12 -14 15 1 31 10 11 12 19 6 19 -6 0 -14 -5 -17 -10 -4 -6 -11 -8 -16
-4 -15 9 -1 21 23 20 15 -1 22 -7 20 -16z m59 5 c3 2 5 -5 6 -16 2 -19 1 -18
-17 3 -11 13 -19 18 -20 13 0 -6 6 -17 12 -23 10 -10 10 -15 -2 -22 -16 -10
-30 -4 -29 13 0 9 2 8 6 -1 2 -6 9 -9 14 -6 6 4 6 11 -1 19 -15 19 -3 40 14
26 7 -6 15 -9 17 -6z m576 -27 c-3 -7 -5 -2 -5 12 0 14 2 19 5 13 2 -7 2 -19
0 -25z m-528 6 c7 5 9 1 5 -9 -5 -12 -9 -13 -20 -4 -8 6 -14 17 -14 23 0 6 4
5 9 -3 5 -7 14 -11 20 -7z m481 -28 c-13 -11 -19 -15 -15 -7 6 11 4 13 -11 8
-19 -7 -19 -7 0 8 10 8 23 12 27 9 5 -3 9 3 10 13 0 12 2 14 6 4 3 -7 -5 -23
-17 -35z m187 31 c7 0 10 -4 7 -9 -3 -4 -14 -4 -24 2 -10 5 -27 7 -37 4 -15
-5 -16 -4 -3 5 8 6 22 8 30 5 8 -4 20 -7 27 -7z m51 -5 c-10 -2 -18 -8 -18
-13 0 -5 -5 -9 -10 -9 -6 0 -6 7 2 19 7 12 18 17 27 13 14 -6 14 -7 -1 -10z
m-925 -7 c-3 -9 -8 -14 -10 -11 -3 3 -2 9 2 15 9 16 15 13 8 -4z m42 -4 c-3
-6 -11 -8 -17 -5 -8 5 -9 1 -4 -12 5 -14 4 -16 -5 -7 -13 13 -3 37 12 28 5 -4
9 -1 9 6 0 7 3 10 6 6 3 -3 3 -11 -1 -16z m605 4 c0 -7 -30 -13 -34 -7 -3 4 4
9 15 9 10 1 19 0 19 -2z m136 -22 c4 -25 -11 -39 -22 -22 -5 8 -3 9 5 5 8 -6
11 -2 9 10 -2 11 -10 22 -18 26 -11 6 -10 7 4 5 11 -1 20 -11 22 -24z m-426 7
c8 -5 11 -10 5 -10 -5 0 -17 5 -25 10 -8 5 -10 10 -5 10 6 0 17 -5 25 -10z
m220 -5 c13 -15 5 -39 -11 -30 -5 4 -9 -3 -9 -14 0 -12 5 -20 11 -18 6 1 14
-5 16 -13 4 -12 3 -12 -5 -2 -5 8 -13 13 -18 13 -5 -1 -9 9 -9 22 0 13 5 21
13 19 8 -1 12 3 10 10 -3 7 -13 15 -23 16 -10 3 -15 0 -11 -7 4 -6 2 -11 -3
-11 -12 0 -14 13 -4 23 11 11 30 8 43 -8z m255 -18 c4 4 5 2 0 -6 -7 -12 -10
-11 -22 4 -7 11 -13 24 -13 29 1 6 6 1 13 -12 7 -12 17 -19 22 -15z m15 23 c0
-5 -4 -10 -10 -10 -5 0 -10 5 -10 10 0 6 5 10 10 10 6 0 10 -4 10 -10z m-655
-10 c3 -6 -1 -7 -9 -4 -18 7 -21 14 -7 14 6 0 13 -4 16 -10z m557 3 c-6 -3
-10 -9 -6 -14 7 -12 -22 -23 -42 -15 -24 9 0 34 34 33 15 0 21 -2 14 -4z m129
-10 c13 -16 12 -17 -3 -4 -17 13 -22 21 -14 21 2 0 10 -8 17 -17z m-714 -1 c9
-5 6 -12 -10 -21 -20 -13 -21 -13 -9 1 10 13 10 17 0 21 -7 3 -8 6 -3 6 6 0
15 -3 22 -7z m484 -2 c18 -10 18 -12 3 -35 -9 -14 -20 -22 -25 -19 -5 3 -9 1
-9 -5 0 -15 18 -23 25 -11 3 5 11 10 16 10 6 0 4 -6 -3 -13 -21 -21 -45 -17
-44 7 1 12 6 20 12 19 5 -1 15 7 22 18 13 20 3 26 -14 9 -8 -8 -15 -5 -25 7
-13 16 -12 17 3 5 10 -8 19 -9 22 -3 3 5 0 12 -6 14 -7 3 -9 6 -5 6 5 1 17 -4
28 -9z m-586 -10 c3 -6 -1 -7 -9 -4 -18 7 -21 14 -7 14 6 0 13 -4 16 -10z m62
-10 c-1 -11 -5 -20 -9 -20 -10 0 -10 4 -2 24 8 22 13 20 11 -4z m91 1 c11 -7
11 -9 -1 -14 -16 -6 -27 0 -27 15 0 10 11 10 28 -1z m312 -1 c0 -5 -5 -10 -11
-10 -5 0 -7 5 -4 10 3 6 8 10 11 10 2 0 4 -4 4 -10z m75 -10 c3 -5 1 -10 -4
-10 -6 0 -11 5 -11 10 0 6 2 10 4 10 3 0 8 -4 11 -10z m156 -22 c-10 -11 -11
-10 -5 5 5 14 2 16 -12 11 -16 -5 -16 -4 -4 5 20 14 39 -4 21 -21z m53 24 c2
-4 -4 -8 -14 -8 -10 0 -16 4 -14 8 3 4 9 8 14 8 5 0 11 -4 14 -8z m-484 -26
c0 -2 -9 -6 -20 -9 -11 -3 -18 -1 -14 4 5 9 34 13 34 5z m215 -15 c-3 -5 3
-11 12 -14 15 -3 15 -4 -1 -3 -20 1 -36 26 -16 26 6 0 9 -4 5 -9z m-2917 -106
c68 -37 124 -93 154 -153 21 -44 23 -62 26 -249 l3 -203 -43 3 -43 2 0 170
c-1 149 -3 175 -21 215 -30 65 -67 105 -126 134 l-52 26 -315 0 c-349 0 -358
-2 -428 -68 -26 -24 -84 -119 -83 -137 0 -3 0 -81 0 -174 l0 -170 -42 3 -42 3
-1 179 c-1 117 3 194 11 223 17 59 70 135 119 170 80 57 106 60 485 58 l345
-2 53 -30z m1474 1 c88 -43 165 -137 182 -221 3 -16 7 -109 8 -205 l3 -175
-42 -3 c-50 -4 -45 -25 -43 190 1 130 -1 152 -21 198 -26 61 -100 131 -157
148 -27 8 -139 12 -350 12 l-310 0 -53 -28 c-53 -28 -122 -103 -129 -140 -1
-9 -4 -98 -5 -197 l-3 -180 -41 -1 c-32 -2 -41 2 -42 15 0 9 0 92 1 185 1 123
5 181 17 215 24 70 64 122 132 171 65 45 102 49 461 47 l335 -2 57 -29z m1872
-84 c-8 -5 -11 -130 -11 -437 l1 -430 -490 -3 -491 -2 0 440 -1 440 502 0
c275 0 496 -4 490 -8z m139 1 c-7 -2 -21 -2 -30 0 -10 3 -4 5 12 5 17 0 24 -2
18 -5z m-1263 -110 l0 -33 -54 0 c-54 0 -55 0 -51 28 2 15 4 29 4 32 1 3 24 6
51 6 50 0 50 0 50 -33z m1280 -9 l0 -44 -40 0 c-40 0 -40 0 -40 39 0 42 4 46
50 47 29 2 30 0 30 -42z m-1526 -302 c-1 -169 -4 -306 -8 -306 -3 1 -20 4 -36
8 l-30 6 0 289 0 289 28 10 c15 6 32 11 37 11 6 1 10 -107 9 -307z m1673 -4
l3 -296 -32 -11 c-17 -6 -32 -11 -34 -11 -1 0 -3 141 -3 314 l0 313 32 -6 32
-7 2 -296z m-1427 168 c0 -31 -3 -34 -33 -38 -63 -7 -79 8 -68 63 0 4 24 7 51
8 l50 1 0 -34z m1280 -11 c0 -34 -1 -35 -40 -35 -39 0 -40 1 -40 35 0 34 1 35
40 35 39 0 40 -1 40 -35z m-7 -114 c4 -1 7 -17 7 -36 0 -33 -1 -34 -37 -32
-34 2 -38 5 -41 31 -4 32 8 44 41 40 12 -1 25 -3 30 -3z m-1275 -33 c-3 -32
-4 -33 -53 -33 -52 0 -55 4 -46 58 0 4 24 7 52 7 l50 0 -3 -32z m1275 -117 c4
-1 7 -17 7 -36 0 -34 -1 -35 -40 -35 -39 0 -40 1 -40 34 0 36 11 46 45 41 11
-2 23 -4 28 -4z m-1275 -43 c-3 -32 -5 -33 -50 -36 -47 -3 -50 -1 -50 33 0 8
0 20 1 25 0 6 24 10 52 10 l50 0 -3 -32z m-1478 -108 c0 -5 -10 -17 -23 -27
-22 -17 -77 -18 -1235 -17 -667 1 -1214 3 -1216 5 -2 2 -6 13 -10 25 l-6 20
1245 1 c685 0 1245 -3 1245 -7z m1001 -12 c6 -11 5 -19 -3 -25 -7 -4 -103 -6
-212 -5 -169 2 -202 5 -218 19 -10 9 -18 19 -18 23 0 3 99 6 221 5 196 0 221
-2 230 -17z m1752 13 c4 -1 7 -17 7 -36 0 -34 -1 -35 -40 -35 -39 0 -40 1 -40
33 0 19 2 36 5 38 3 4 31 4 68 0z m-1273 -47 l0 -35 -52 3 c-49 3 -53 5 -54
28 -2 37 2 40 57 40 l49 0 0 -36z m1280 -114 c-5 -9 -6 -20 -3 -24 6 -5 -12
-8 -52 -8 -28 0 -32 2 -31 25 1 25 25 35 68 29 23 -3 26 -7 18 -22z m-1283
-16 c0 -10 -14 -14 -49 -14 -35 0 -48 4 -48 14 0 8 10 16 23 18 38 5 74 -3 74
-18z"/>
<path d="M4649 4506 c-88 -31 -139 -101 -139 -190 0 -87 64 -173 145 -196 139
-39 280 100 245 241 -27 108 -152 180 -251 145z"/>
<path d="M5185 4514 c-5 -1 -22 -5 -37 -8 -39 -9 -98 -64 -119 -111 -38 -83
-14 -173 61 -238 51 -43 97 -54 160 -38 94 25 155 100 154 191 0 79 -42 146
-115 185 -26 14 -83 24 -104 19z"/>
<path d="M4420 4400 c-9 -6 -10 -10 -3 -10 6 0 15 5 18 10 8 12 4 12 -15 0z"/>
<path d="M4393 4360 c-3 -11 -9 -20 -14 -20 -5 0 -9 -7 -9 -15 0 -8 -5 -15
-11 -15 -6 0 -9 -6 -6 -14 3 -8 1 -16 -5 -18 -5 -2 -2 -10 8 -18 16 -13 17
-13 12 1 -3 9 -2 22 4 30 8 11 9 11 4 -3 -3 -10 -1 -20 4 -23 10 -6 12 0 13
48 1 15 4 27 8 27 4 0 9 9 12 20 3 11 1 20 -5 20 -5 0 -12 -9 -15 -20z"/>
<path d="M4905 4115 c-27 -26 -31 -51 -14 -89 26 -57 103 -53 132 6 18 37 12
63 -21 88 -33 27 -68 25 -97 -5z"/>
<path d="M4671 4008 c-114 -20 -187 -147 -150 -259 16 -47 75 -106 126 -125
38 -15 52 -15 99 -5 96 22 155 96 155 196 0 126 -106 215 -230 193z"/>
<path d="M5112 3989 c-102 -51 -129 -207 -51 -301 121 -148 373 -40 344 148
-8 54 -56 121 -110 151 -52 30 -125 30 -183 2z"/>
<path d="M1255 4123 c-9 -63 -45 -143 -81 -177 -34 -33 -114 -72 -166 -81 -54
-10 -47 -30 16 -44 126 -28 209 -123 230 -264 4 -27 12 -47 18 -45 6 2 18 28
28 58 44 144 129 227 252 248 56 10 59 28 6 42 -150 38 -227 109 -263 245 -10
36 -21 65 -25 65 -4 0 -11 -21 -15 -47z"/>
<path d="M3656 4094 c-3 -9 -6 -22 -6 -31 0 -14 -14 -50 -43 -110 -26 -57
-111 -116 -179 -125 -48 -7 -41 -16 24 -34 95 -27 148 -84 183 -198 15 -47 31
-84 35 -81 4 3 11 21 15 41 11 62 56 143 98 179 23 20 66 43 96 52 58 17 86
33 60 33 -38 0 -122 34 -154 61 -39 35 -90 130 -100 189 -7 42 -19 51 -29 24z"/>
<path d="M4435 3649 c-11 -17 1 -21 15 -4 8 9 8 15 2 15 -6 0 -14 -5 -17 -11z"/>
<path d="M5225 3190 c-3 -5 3 -10 15 -10 12 0 18 5 15 10 -3 6 -10 10 -15 10
-5 0 -12 -4 -15 -10z"/>
<path d="M4868 2765 c-93 -32 -145 -106 -146 -207 0 -46 6 -66 28 -101 40 -64
266 -287 290 -287 13 0 73 52 159 138 155 154 169 177 157 275 -14 113 -94
187 -203 187 -41 0 -58 -5 -83 -26 l-31 -27 -22 21 c-37 34 -98 45 -149 27z
m131 -173 l40 -38 34 38 c41 45 76 50 112 13 45 -44 35 -74 -54 -165 -43 -44
-84 -80 -91 -80 -16 0 -149 129 -165 160 -16 33 -10 71 16 93 33 27 64 21 108
-21z"/>
<path d="M368 4383 c-63 -138 -167 -448 -193 -572 -50 -243 -67 -380 -69 -551
-2 -224 9 -364 40 -523 26 -136 15 -127 150 -127 l117 0 -7 53 c-3 28 -8 61
-10 73 -6 28 -16 111 -26 204 -8 80 -5 521 5 580 8 50 16 109 21 155 3 22 7
47 10 55 6 15 6 722 0 727 -2 2 -19 -32 -38 -74z"/>
<path d="M3115 2095 c-14 -13 -25 -31 -25 -38 0 -20 59 -91 93 -110 46 -27 36
-56 -48 -138 -42 -40 -78 -83 -81 -95 -7 -27 9 -60 37 -75 36 -19 77 6 186
113 137 135 137 131 -1 266 -57 56 -111 102 -120 102 -9 0 -28 -11 -41 -25z"/>
<path d="M1044 1740 c-41 -15 258 -349 461 -516 247 -202 459 -328 750 -444
11 -5 65 -23 120 -40 55 -18 111 -36 125 -41 48 -16 106 -29 250 -54 118 -22
183 -27 350 -30 113 -2 237 1 275 6 138 17 160 20 229 35 234 49 404 105 601
199 314 150 554 322 815 584 125 125 263 288 255 301 -2 3 -104 5 -227 4
l-222 -3 -31 -33 c-49 -52 -143 -138 -225 -206 -100 -84 -98 -82 -109 -82 -5
0 -11 -4 -13 -8 -1 -4 -34 -28 -73 -54 -290 -189 -579 -306 -905 -364 -103
-18 -428 -25 -553 -12 -90 10 -252 43 -362 75 -362 103 -734 325 -1020 606
l-79 79 -199 1 c-109 1 -204 0 -213 -3z"/>
<path d="M2315 1580 c-17 -5 -46 -25 -64 -44 -28 -29 -35 -45 -39 -88 -3 -44
0 -59 20 -88 70 -103 212 -99 264 7 59 122 -52 252 -181 213z m85 -80 c31 -16
41 -63 22 -102 -9 -18 -25 -34 -35 -36 -29 -6 -73 17 -86 44 -16 35 -14 48 10
78 21 27 56 34 89 16z"/>
<path d="M2625 1574 c-12 -12 -15 -42 -15 -144 0 -117 2 -130 19 -140 45 -23
63 8 59 98 -3 53 -3 53 15 30 142 -179 170 -179 170 5 -1 158 -1 155 -24 162
-35 12 -51 -15 -50 -84 0 -34 -3 -61 -7 -61 -8 0 -59 59 -76 89 -28 47 -68 67
-91 45z"/>
<path d="M2988 1571 c-16 -23 -16 -257 0 -273 5 -5 45 -9 88 -9 105 -1 101 -2
107 20 8 30 -23 51 -76 51 l-47 0 0 93 c0 68 -4 99 -16 115 -19 27 -39 28 -56
3z"/>
<path d="M3300 1583 c-27 -10 -30 -26 -30 -148 0 -66 4 -125 8 -131 11 -17 35
-22 55 -12 15 8 17 25 17 134 0 114 -9 165 -28 163 -4 0 -14 -3 -22 -6z"/>
<path d="M3473 1579 c-22 -8 -23 -14 -24 -116 -2 -144 0 -156 19 -170 35 -28
53 -7 58 68 3 35 6 65 8 66 2 2 22 -21 45 -51 23 -31 50 -64 62 -75 20 -19 53
-18 66 2 3 5 5 67 4 136 -1 96 -5 130 -17 141 -11 11 -19 12 -32 4 -12 -8 -18
-29 -22 -79 l-5 -69 -31 36 c-17 19 -37 44 -45 54 -33 43 -63 62 -86 53z"/>
<path d="M3860 1582 c-14 -2 -29 -8 -34 -12 -13 -13 -12 -258 2 -272 13 -13
160 -18 185 -6 21 11 22 54 1 62 -9 3 -37 6 -64 6 -33 0 -50 5 -53 15 -8 20
10 29 54 26 28 -1 40 3 48 16 17 32 -4 53 -54 53 -38 0 -45 3 -45 20 0 16 8
19 63 22 57 3 62 5 65 27 2 13 -1 28 -7 34 -10 10 -111 15 -161 9z"/>
</g>
</svg>
